<svg width="153" height="158" viewBox="0 0 153 158" fill="none" xmlns="http://www.w3.org/2000/svg">
<g id="sloppy">
<path id="right-ear" d="M132.729 0.0454129C137.181 -1.06668 136.229 18.5454 132.229 26.0454C127.729 21.0459 118.729 12.0454 112.729 9.54541C124.229 7.04541 131.856 0.263339 132.729 0.0454129Z" fill="#4A8FE7"/>
<path id="left-ear" d="M20.6714 0.0454129C16.2189 -1.06668 17.1714 18.5454 21.1714 26.0454C25.6714 21.0459 34.6714 12.0454 40.6714 9.54541C29.1714 7.04541 21.5439 0.263339 20.6714 0.0454129Z" fill="#4A8FE7"/>
<path id="right-arm" d="M137.06 135.545C144.56 131.045 161.56 111.045 147.06 78.5454C147.06 101.545 142.06 118.045 131.06 133.045C130.56 133.545 133.236 137.84 137.06 135.545Z" fill="#2B80CF"/>
<path id="left-arm" d="M15.6714 135.545C8.17144 131.045 -8.82856 111.045 5.67144 78.5454C5.67144 101.545 10.6714 118.045 21.6714 133.045C22.1714 133.545 19.4957 137.84 15.6714 135.545Z" fill="#2B80CF"/>
<path id="body" d="M147.576 79.0485C148.076 120.551 126.59 157.55 76.6268 157.545C26.6573 157.545 5.17174 120.551 5.6776 79.0485C4.17242 29.5514 36.1509 0.0516703 76.6268 0.551666C117.096 0.0516703 149.075 29.5514 147.576 79.0485Z" fill="#4A8FE7"/>
<path id="nose" d="M71.1714 82.0454L76.6714 73.5454L82.1714 82.0454C82.1714 82.0454 80.1714 87.5454 76.6714 89.5454C73.1714 87.5454 71.1714 82.0454 71.1714 82.0454Z" fill="black"/>
<g id="eyes">
<circle id="left-sclera" cx="47.1714" cy="60.0454" r="26.5" fill="#98F5A6"/>
<circle id="right-scalera" cx="106.171" cy="60.0454" r="26.5" fill="#98F5A6"/>
<path id="left-eyelid" d="M47.1714 27.5454C65.1207 27.5454 79.6714 42.0962 79.6714 60.0454C79.6714 77.9947 65.1207 92.5454 47.1714 92.5454C29.2222 92.5454 14.6714 77.9947 14.6714 60.0454C14.6714 42.0962 29.2222 27.5454 47.1714 27.5454ZM47.1714 33.5454C32.5359 33.5454 20.6714 45.4099 20.6714 60.0454C20.6714 74.681 32.5359 86.5454 47.1714 86.5454C61.807 86.5454 73.6714 74.681 73.6714 60.0454C73.6714 45.4099 61.807 33.5454 47.1714 33.5454Z" fill="black"/>
<path id="right-eyelid" d="M106.171 27.5454C124.121 27.5454 138.671 42.0962 138.671 60.0454C138.671 77.9947 124.121 92.5454 106.171 92.5454C88.2222 92.5454 73.6714 77.9947 73.6714 60.0454C73.6714 42.0962 88.2222 27.5454 106.171 27.5454ZM106.171 33.5454C91.5359 33.5454 79.6714 45.4099 79.6714 60.0454C79.6714 74.681 91.5359 86.5454 106.171 86.5454C120.807 86.5454 132.671 74.681 132.671 60.0454C132.671 45.4099 120.807 33.5454 106.171 33.5454Z" fill="black"/>
<g id="right-glow" filter="url(#filter0_f_2_12)">
<path d="M132.671 60.0454C132.671 74.681 120.807 86.5454 106.171 86.5454C91.5359 86.5454 79.6714 74.681 79.6714 60.0454C79.6714 45.4099 91.5359 33.5454 106.171 33.5454C120.807 33.5454 132.671 45.4099 132.671 60.0454Z" fill="#98F5A6"/>
</g>
<g id="left-glow" filter="url(#filter1_f_2_12)">
<path d="M73.6714 60.0454C73.6714 74.681 61.807 86.5454 47.1714 86.5454C32.5359 86.5454 20.6714 74.681 20.6714 60.0454C20.6714 45.4099 32.5359 33.5454 47.1714 33.5454C61.807 33.5454 73.6714 45.4099 73.6714 60.0454Z" fill="#98F5A6"/>
</g>
<path id="right-pupil" d="M99.1714 50.5454C104.418 50.5454 108.671 54.7987 108.671 60.0454C108.671 65.2921 104.418 69.5454 99.1714 69.5454C93.9247 69.5454 89.6714 65.2921 89.6714 60.0454C89.6714 54.7987 93.9247 50.5454 99.1714 50.5454ZM101.671 53.5454C100.015 53.5454 98.6714 54.8886 98.6714 56.5454C98.6714 58.2023 100.015 59.5454 101.671 59.5454C103.328 59.5454 104.671 58.2023 104.671 56.5454C104.671 54.8886 103.328 53.5454 101.671 53.5454Z" fill="black"/>
<path id="left-pupil" d="M55.1714 50.5454C60.4181 50.5454 64.6714 54.7987 64.6714 60.0454C64.6714 65.2921 60.4181 69.5454 55.1714 69.5454C49.9247 69.5454 45.6714 65.2921 45.6714 60.0454C45.6714 54.7987 49.9247 50.5454 55.1714 50.5454ZM57.6714 53.5454C56.0146 53.5454 54.6714 54.8886 54.6714 56.5454C54.6714 58.2023 56.0146 59.5454 57.6714 59.5454C59.3283 59.5454 60.6714 58.2023 60.6714 56.5454C60.6714 54.8886 59.3283 53.5454 57.6714 53.5454Z" fill="black"/>
</g>
</g>
<defs>
<filter id="filter0_f_2_12" x="59.6714" y="13.5454" width="93" height="93" filterUnits="userSpaceOnUse" color-interpolation-filters="sRGB">
<feFlood flood-opacity="0" result="BackgroundImageFix"/>
<feBlend mode="normal" in="SourceGraphic" in2="BackgroundImageFix" result="shape"/>
<feGaussianBlur stdDeviation="10" result="effect1_foregroundBlur_2_12"/>
</filter>
<filter id="filter1_f_2_12" x="0.671438" y="13.5454" width="93" height="93" filterUnits="userSpaceOnUse" color-interpolation-filters="sRGB">
<feFlood flood-opacity="0" result="BackgroundImageFix"/>
<feBlend mode="normal" in="SourceGraphic" in2="BackgroundImageFix" result="shape"/>
<feGaussianBlur stdDeviation="10" result="effect1_foregroundBlur_2_12"/>
</filter>
</defs>
</svg>
